<svg xmlns="http://www.w3.org/2000/svg" viewBox="0 0 145.97 134.93"><defs><style>.cls-1{fill:#f6f8f1;}</style></defs><title>cardano</title><g id="Livello_2" data-name="Livello 2"><g id="Livello_1-2" data-name="Livello 1"><g id="cardano"><path id="Path_130" data-name="Path 130" class="cls-1" d="M71.2.4c3.18-1.66,7.07,2.19,5.38,5.37a4.13,4.13,0,0,1-5.44,2.09A4,4,0,0,1,70,7.07,4.15,4.15,0,0,1,70,1.2,4.22,4.22,0,0,1,71.2.4M37,4.09a3.18,3.18,0,0,1,4,2,3.29,3.29,0,0,1,.16,1.08A3.18,3.18,0,0,1,38,10.38a3.31,3.31,0,0,1-1.42-.32c-2.61-1-2.31-5.25.38-6m70.11,6c-3-.36-3.5-5.11-.59-6.07,2.25-1.1,4.32,1,4.65,3.1-.47,1.82-2,3.5-4.06,3M44.76,18.66c3.23-2,7.84,1,7.34,4.75-.16,3.8-5.2,6-8,3.43a5,5,0,0,1,.7-8.18M94.1,20.83c1.44-3.72,7.29-3.83,8.93-.21,1.62,2.81-.38,6.3-3.27,7.26-3.83.71-7.46-3.43-5.66-7m-27,6.84c0-3.2,2.88-5.58,5.91-5.8,2,.4,4.21,1.27,5.08,3.3A5.84,5.84,0,0,1,75.54,33l-.2.1c-1.33.74-2.9.46-4.36.38-2.21-1.09-4.08-3.22-3.9-5.83M16.17,32.32C19.12,30.51,23.1,33.82,22,37a4.09,4.09,0,1,1-5.82-4.71m109.32,0c2.5-1.94,6.64.29,6.34,3.45a4.06,4.06,0,0,1-4.1,4,4.1,4.1,0,0,1-2.24-7.47m-44.1,5.75a9.87,9.87,0,0,1,8,17.93c-5,3.06-12.3.46-14.14-5.12A9.88,9.88,0,0,1,81.1,38.16l.3-.1m-24.26.49c4.58-2.16,10.75-.35,13,4.34a9.87,9.87,0,1,1-13.32-4.16l.36-.18m-24.29,8.3c.35-3,3.14-4.87,5.95-5.07a6.55,6.55,0,0,1,5.77,5.78c-.2,3-2.54,6-5.76,6a5.79,5.79,0,0,1-6-5.55,5.45,5.45,0,0,1,.06-1.14m71.74-4.43c3.63-2.11,8.67,1,8.51,5.13.25,4.42-5.33,7.54-8.95,4.94-3.75-2.15-3.46-8.23.44-10.07M47.27,58a9.86,9.86,0,0,1,9,17c-4.55,4.22-12.93,2.52-15.34-3.24-2.78-5.29.6-12.37,6.35-13.77m46,0a9.88,9.88,0,0,1,8.37,17.66c-4.58,3.22-11.67,1.53-14.18-3.5-3.06-5.21,0-12.57,5.82-14.15M20,62.88c3.67-1.39,7.73,2.66,6.25,6.3A4.93,4.93,0,0,1,20,72.29a4.82,4.82,0,0,1-1.74-1A5,5,0,0,1,20,62.88m99.41,5.28a5.61,5.61,0,0,1,5.23-5.9c2.52.4,5,2.43,4.76,5.16.23,3.61-4.12,6.07-7.2,4.37a6.68,6.68,0,0,1-2.79-3.63M1.93,64.66a3.21,3.21,0,0,1,4.2,1.68,3.17,3.17,0,0,1,.23,1.72c-.12,2.78-4.22,3.85-5.72,1.53A3.26,3.26,0,0,1,1.33,65,3.29,3.29,0,0,1,1.93,64.66Zm139.12,0a3.17,3.17,0,0,1,4.39,1,2.94,2.94,0,0,1,.27.53,3.12,3.12,0,0,1-1.64,4.11,3.05,3.05,0,0,1-1.46.25c-3.13.29-4.14-4.49-1.56-5.87M59.25,77.92c5.81-1.51,12,3.34,12.09,9.31.38,6-5.77,11.4-11.71,10a9.86,9.86,0,0,1-.38-19.31m23,0c5.89-1.65,12.32,3.28,12.22,9.4.32,5.93-5.64,11.1-11.46,9.93-5.47-.71-9.52-6.73-8-12a9.93,9.93,0,0,1,7.23-7.29M37.91,81.59c4.08-.7,7.9,3.85,6.25,7.73C43,93.44,37,94.56,34.29,91.19c-3.11-3.24-.78-9.15,3.62-9.6m67.44.18a5.83,5.83,0,0,1,7.47,3.49,5.91,5.91,0,0,1,.35,2.08c.14,4.35-5.37,7.34-8.92,4.8-4-2.27-3.3-9,1.1-10.37m18.84,18.9C122.77,98,125.36,94.5,128.3,95c1.47,0,2.5,1.13,3.43,2.1.2,1.57.52,3.45-.78,4.66a4.06,4.06,0,0,1-5.73.33,4.11,4.11,0,0,1-1-1.41m-108-4.93c2.75-1.83,6.71.9,6.1,4.12a4.1,4.1,0,1,1-6.1-4.12m54.41,6c3.6-1.59,8.2,1.55,7.85,5.52.27,4.39-5.41,7.43-8.94,4.79-3.91-2.26-3.26-8.92,1.09-10.31m-25.2,5.88c3.07-1.62,7.19,1.17,6.91,4.61A4.91,4.91,0,0,1,46.83,117c-2.3,0-3.81-2.12-4.55-4.08,0-2.15.92-4.53,3.09-5.34m51,0c3.16-1.95,7.65.85,7.35,4.53.08,3.84-5,6.3-7.93,3.77a5,5,0,0,1-.9-7,5.09,5.09,0,0,1,1.48-1.29m8.88,22c-1.4-2.13.25-4.69,2.53-5.18,1.83.38,3.77,1.76,3.39,3.88-.27,2.88-4.48,3.76-5.92,1.3m-70.47-1.85c.56-1.68,1.92-3.36,3.9-2.92,2.89.2,3.75,4.56,1.22,5.9-2.27,1.53-4.91-.57-5.11-3m34,1.94a4,4,0,0,1,5-2.76,4.11,4.11,0,0,1,.89.38c1.4.6,1.82,2.17,2.18,3.51-.2.7-.37,1.39-.54,2.09a4.58,4.58,0,0,1-3.44,2c-2.69.32-5.12-2.73-4.1-5.24"/></g></g></g></svg>