<svg xmlns="http://www.w3.org/2000/svg" viewBox="0 0 20.69 15.29"><defs><style>.cls-1{fill:#56e38e;}</style></defs><title>discord</title><g id="Livello_2" data-name="Livello 2"><g id="Livello_2-2" data-name="Livello 2"><path id="icons8-discord" class="cls-1" d="M17.82,1.7A9.88,9.88,0,0,0,13.08,0a.46.46,0,0,0-.45.27,2.32,2.32,0,0,0-.13.37,11.15,11.15,0,0,1,3.95,1.42.44.44,0,0,1,.17.61.45.45,0,0,1-.61.18l0,0a11.54,11.54,0,0,0-11.27,0,.44.44,0,0,1-.61-.17.46.46,0,0,1,.14-.59A11.15,11.15,0,0,1,8.19.64,2.32,2.32,0,0,0,8.06.27.45.45,0,0,0,7.61,0,9.91,9.91,0,0,0,2.84,1.72C1.9,2.59,0,7.72,0,12.14a.46.46,0,0,0,.06.23c1.31,2.3,4.87,2.9,5.69,2.92h0a.45.45,0,0,0,.37-.18L7,14a8.88,8.88,0,0,1-3.42-1.6.47.47,0,0,1,0-.64.46.46,0,0,1,.64,0,9.93,9.93,0,0,0,6.22,1.8,10,10,0,0,0,6.22-1.8.45.45,0,0,1,.63,0,.45.45,0,0,1,0,.64h0A8.81,8.81,0,0,1,13.74,14l.83,1.13a.43.43,0,0,0,.36.18h0c.82,0,4.39-.62,5.69-2.92a.46.46,0,0,0,.06-.23C20.69,7.72,18.79,2.59,17.82,1.7ZM7.42,10.35a1.7,1.7,0,0,1-1.57-1.8,1.69,1.69,0,0,1,1.57-1.8A1.69,1.69,0,0,1,9,8.55,1.7,1.7,0,0,1,7.42,10.35Zm5.85,0a1.71,1.71,0,0,1-1.58-1.8,1.7,1.7,0,0,1,1.58-1.8,1.69,1.69,0,0,1,1.57,1.8A1.7,1.7,0,0,1,13.27,10.35Z"/></g></g></svg>