<svg xmlns="http://www.w3.org/2000/svg" viewBox="0 0 353.47 384.59"><defs><style>.cls-1{fill:#4ee58b;}</style></defs><title>dots</title><g id="Livello_2" data-name="Livello 2"><g id="Livello_2-2" data-name="Livello 2"><path class="cls-1" d="M5,8.43c-5.35,3.35-6.17,9.89-3.63,15.74s10.4,7,15.74,3.62,6.17-9.89,3.62-15.74S10.35,5.09,5,8.43Z"/><path class="cls-1" d="M98.23.51C88.51-1.88,80.15,4.42,76.3,13.78s3.54,19.54,13.27,21.93,18.08-3.9,21.93-13.26S108,2.9,98.23.51Z"/><path class="cls-1" d="M170.68,8.43c-5.35,3.35-6.17,9.89-3.63,15.74s10.4,7,15.74,3.62,6.17-9.89,3.62-15.74S176,5.09,170.68,8.43Z"/><path class="cls-1" d="M253.51,8.43c-5.34,3.35-6.16,9.89-3.62,15.74s10.39,7,15.74,3.62,6.16-9.89,3.62-15.74S258.86,5.09,253.51,8.43Z"/><path class="cls-1" d="M352.08,12.05c-2.54-5.84-10.39-7-15.73-3.62s-6.17,9.89-3.63,15.74,10.39,7,15.74,3.62S354.63,17.9,352.08,12.05Z"/><path class="cls-1" d="M9,95.71c-5.35,3.34-10.17,9.89-7.63,15.74s10.4,7,15.74,3.62,6.17-9.89,3.62-15.74S14.35,92.36,9,95.71Z"/><path class="cls-1" d="M87.84,95.71c-5.34,3.34-6.16,9.89-3.62,15.74s10.39,7,15.74,3.62,6.16-9.89,3.62-15.74S93.19,92.36,87.84,95.71Z"/><path class="cls-1" d="M170.68,95.71c-5.35,3.34-6.17,9.89-3.63,15.74s10.4,7,15.74,3.62,6.17-9.89,3.62-15.74S176,92.36,170.68,95.71Z"/><path class="cls-1" d="M251.11,91.87c-7.46,4.67-8.61,13.81-5.06,22s14.51,9.73,22,5.05,8.61-13.8,5.06-22S258.58,87.2,251.11,91.87Z"/><path class="cls-1" d="M352.08,99.33c-2.54-5.85-10.39-7-15.73-3.62s-6.17,9.89-3.63,15.74,10.39,7,15.74,3.62S354.63,105.18,352.08,99.33Z"/><path class="cls-1" d="M5,183c-5.35,3.34-6.17,9.89-3.63,15.73s10.4,7,15.74,3.63,6.17-9.89,3.62-15.74S10.35,179.64,5,183Z"/><path class="cls-1" d="M87.84,183c-5.34,3.34-6.16,9.89-3.62,15.73s10.39,7,15.74,3.63,6.16-9.89,3.62-15.74S93.19,179.64,87.84,183Z"/><path class="cls-1" d="M172.37,185.69c-3.86,2.41-4.45,7.13-2.61,11.34s7.49,5,11.34,2.61,4.44-7.13,2.61-11.34S176.22,183.28,172.37,185.69Z"/><path class="cls-1" d="M253.51,183c-5.34,3.34-6.16,9.89-3.62,15.73s10.39,7,15.74,3.63,6.16-9.89,3.62-15.74S258.86,179.64,253.51,183Z"/><path class="cls-1" d="M352.08,186.61c-2.54-5.85-10.39-7-15.73-3.62s-6.17,9.89-3.63,15.73,10.39,7,15.74,3.63S354.63,192.46,352.08,186.61Z"/><path class="cls-1" d="M5,270.26c-5.35,3.35-6.17,9.89-3.63,15.74s10.4,7,15.74,3.62,6.17-9.89,3.62-15.73S10.35,266.92,5,270.26Z"/><path class="cls-1" d="M87.84,270.26c-5.34,3.35-6.16,9.89-3.62,15.74s10.39,7,15.74,3.62,6.16-9.89,3.62-15.73S93.19,266.92,87.84,270.26Z"/><path class="cls-1" d="M170.68,270.26c-5.35,3.35-6.17,9.89-3.63,15.74s10.4,7,15.74,3.62,6.17-9.89,3.62-15.73S176,266.92,170.68,270.26Z"/><path class="cls-1" d="M253.51,270.26c-5.34,3.35-6.16,9.89-3.62,15.74s10.39,7,15.74,3.62,6.16-9.89,3.62-15.73S258.86,266.92,253.51,270.26Z"/><path class="cls-1" d="M351.08,273.89c-2.54-5.85-10.39-7-15.73-3.63s-6.17,9.89-3.63,15.74,10.39,7,15.74,3.62S353.63,279.73,351.08,273.89Z"/><path class="cls-1" d="M5,357.54c-5.35,3.35-6.17,9.89-3.63,15.74s10.4,7,15.74,3.62,6.17-9.89,3.62-15.74S10.35,354.2,5,357.54Z"/><path class="cls-1" d="M78.12,361.39c-3.22,8.71,1.71,17.08,9.95,21.61s18.39-1.23,21.61-9.95S108,356,99.73,351.44,81.34,352.67,78.12,361.39Z"/><path class="cls-1" d="M170.68,357.54c-5.35,3.35-6.17,9.89-3.63,15.74s10.4,7,15.74,3.62,6.17-9.89,3.62-15.74S176,354.2,170.68,357.54Z"/><path class="cls-1" d="M253.51,357.54c-5.34,3.35-6.16,9.89-3.62,15.74s10.39,7,15.74,3.62,6.16-9.89,3.62-15.74S258.86,354.2,253.51,357.54Z"/><path class="cls-1" d="M352.08,361.16c-2.54-5.84-10.39-7-15.73-3.62s-6.17,9.89-3.63,15.74,10.39,7,15.74,3.62S354.63,367,352.08,361.16Z"/></g></g></svg>