<svg xmlns="http://www.w3.org/2000/svg" viewBox="0 0 311.48 335.61"><defs><style>.cls-1{fill:#4ee58b;}</style></defs><title>lines</title><g id="Livello_2" data-name="Livello 2"><g id="Livello_2-2" data-name="Livello 2"><path class="cls-1" d="M6,335.61a6,6,0,0,1-6-6c0-17.58,4.58-26.85,8.62-35,3.8-7.67,7.38-14.92,7.38-29.7s-3.58-22-7.38-29.71C4.58,227,0,217.75,0,200.16s4.58-26.85,8.62-35c3.8-7.67,7.38-14.92,7.38-29.7s-3.58-22-7.38-29.7C4.58,97.56,0,88.3,0,70.72s4.58-26.85,8.62-35C12.42,28,16,20.78,16,6A6,6,0,0,1,28,6c0,17.58-4.58,26.85-8.62,35C15.58,48.69,12,55.94,12,70.72s3.58,22,7.38,29.7c4,8.17,8.62,17.44,8.62,35s-4.58,26.85-8.62,35c-3.8,7.67-7.38,14.92-7.38,29.7s3.58,22,7.38,29.71c4,8.17,8.62,17.43,8.62,35s-4.58,26.85-8.62,35c-3.8,7.67-7.38,14.92-7.38,29.7A6,6,0,0,1,6,335.61Z"/><path class="cls-1" d="M76.87,335.61a6,6,0,0,1-6-6c0-17.58,4.58-26.85,8.62-35,3.8-7.67,7.38-14.92,7.38-29.7s-3.58-22-7.38-29.71c-4-8.17-8.62-17.43-8.62-35s4.58-26.85,8.62-35c3.8-7.67,7.38-14.92,7.38-29.7s-3.58-22-7.38-29.7c-4-8.18-8.62-17.44-8.62-35s4.58-26.85,8.62-35C83.29,28,86.87,20.78,86.87,6a6,6,0,0,1,12,0c0,17.58-4.58,26.85-8.62,35-3.8,7.67-7.38,14.92-7.38,29.7s3.58,22,7.38,29.7c4,8.17,8.62,17.44,8.62,35s-4.58,26.85-8.62,35c-3.8,7.67-7.38,14.92-7.38,29.7s3.58,22,7.38,29.71c4,8.17,8.62,17.43,8.62,35s-4.58,26.85-8.62,35c-3.8,7.67-7.38,14.92-7.38,29.7A6,6,0,0,1,76.87,335.61Z"/><path class="cls-1" d="M147.74,335.61a6,6,0,0,1-6-6c0-17.58,4.58-26.85,8.62-35,3.79-7.67,7.38-14.92,7.38-29.7s-3.59-22-7.38-29.71c-4-8.17-8.62-17.43-8.62-35s4.58-26.85,8.62-35c3.79-7.67,7.38-14.92,7.38-29.7s-3.59-22-7.38-29.7c-4-8.18-8.62-17.44-8.62-35s4.58-26.85,8.62-35c3.79-7.67,7.38-14.92,7.38-29.7a6,6,0,0,1,12,0c0,17.58-4.58,26.85-8.62,35-3.8,7.67-7.38,14.92-7.38,29.7s3.58,22,7.38,29.7c4,8.17,8.62,17.44,8.62,35s-4.58,26.85-8.62,35c-3.8,7.67-7.38,14.92-7.38,29.7s3.58,22,7.38,29.71c4,8.17,8.62,17.43,8.62,35s-4.58,26.85-8.62,35c-3.8,7.67-7.38,14.92-7.38,29.7A6,6,0,0,1,147.74,335.61Z"/><path class="cls-1" d="M218.61,335.61a6,6,0,0,1-6-6c0-17.58,4.58-26.85,8.62-35,3.79-7.67,7.38-14.92,7.38-29.7s-3.59-22-7.38-29.71c-4-8.17-8.62-17.43-8.62-35s4.58-26.85,8.62-35c3.79-7.67,7.38-14.92,7.38-29.7s-3.59-22-7.38-29.7c-4-8.18-8.62-17.44-8.62-35s4.58-26.85,8.62-35C225,28,228.61,20.78,228.61,6a6,6,0,0,1,12,0c0,17.58-4.58,26.85-8.62,35-3.8,7.67-7.38,14.92-7.38,29.7s3.58,22,7.38,29.7c4,8.17,8.62,17.44,8.62,35s-4.58,26.85-8.62,35c-3.8,7.67-7.38,14.92-7.38,29.7s3.58,22,7.38,29.71c4,8.17,8.62,17.43,8.62,35s-4.58,26.85-8.62,35c-3.8,7.67-7.38,14.92-7.38,29.7A6,6,0,0,1,218.61,335.61Z"/><path class="cls-1" d="M289.48,335.61a6,6,0,0,1-6-6c0-17.58,4.58-26.85,8.62-35,3.79-7.67,7.38-14.92,7.38-29.7s-3.59-22-7.38-29.71c-4-8.17-8.62-17.43-8.62-35s4.58-26.85,8.62-35c3.79-7.67,7.38-14.92,7.38-29.7s-3.59-22-7.38-29.7c-4-8.18-8.62-17.44-8.62-35s4.58-26.85,8.62-35c3.79-7.67,7.38-14.92,7.38-29.7a6,6,0,0,1,12,0c0,17.58-4.58,26.85-8.62,35-3.8,7.67-7.38,14.92-7.38,29.7s3.58,22,7.38,29.7c4,8.17,8.62,17.44,8.62,35s-4.58,26.85-8.62,35c-3.8,7.67-7.38,14.92-7.38,29.7s3.58,22,7.38,29.71c4,8.17,8.62,17.43,8.62,35s-4.58,26.85-8.62,35c-3.8,7.67-7.38,14.92-7.38,29.7A6,6,0,0,1,289.48,335.61Z"/></g></g></svg>