<svg xmlns="http://www.w3.org/2000/svg" viewBox="0 0 17.73 17.73"><defs><style>.cls-1{fill:#56e38e;}</style></defs><title>linkedin</title><g id="Livello_2" data-name="Livello 2"><g id="Livello_2-2" data-name="Livello 2"><path id="icons8-linkedin-circled" class="cls-1" d="M8.87,0a8.87,8.87,0,1,0,8.86,8.87A8.87,8.87,0,0,0,8.87,0ZM5.54,4a1,1,0,0,1,1,.89.22.22,0,0,1,0,.08,1,1,0,0,1-1,1H5.47a1,1,0,0,1-1-.89.22.22,0,0,1,0-.08,1,1,0,0,1,1-1Zm1.11,8.57H4.43V6.65H6.65Zm7.39,0H12V9.33c0-.89-.55-1.1-.76-1.1s-.9.14-.9,1.1v3.23H8.13V6.65h2.15v.82a2,2,0,0,1,1.88-.82c1,0,1.88.82,1.88,2.68Z"/></g></g></svg>