<svg xmlns="http://www.w3.org/2000/svg" viewBox="0 0 156.2 156.12"><defs><style>.cls-1{fill:#112c2f;}</style></defs><title>pf9</title><g id="Livello_2" data-name="Livello 2"><g id="Livello_1-2" data-name="Livello 1"><path class="cls-1" d="M2.92,96.21H153.13c-.58,28.49-38.23,59-73.53,59.89C43.53,157,5.41,127.38,2.92,96.21Z"/><path class="cls-1" d="M119.53,84.39c.89-16.1-3.57-29.36-16-39.1A40.42,40.42,0,0,0,75,36.58C55.81,37.93,37.77,54.73,37.56,72c2.9,0,5.91.44,8.68-.2,1.36-.31,2.69-2.46,3.31-4.07C54.5,55,65.93,47.54,80.09,48.09c12.09.48,23.51,9.69,26.64,22.06,1.1,4.37,1,9,1.49,13.81-2.16.21-3.29.39-4.42.41-8,.2-8,.19-8.63-7.93a17.58,17.58,0,0,0-16.4-16c-9.28-.43-17.2,5.85-18.46,14.75-.39,2.77-.49,5.59-.76,8.76H24.29C22.7,68,26.89,53.83,37.68,42.1,52.47,26,71,20.19,92.09,25.88c21.36,5.74,34.18,20.35,39.06,41.81.65,2.84,1.52,4.12,4.42,3.87,1.66-.15,3.33,0,5-.09a12.37,12.37,0,0,0,1.87-.34c3-25.43-27.42-55.48-59.89-58.3-35-3-72.18,25-70.42,71.09H.46A66.24,66.24,0,0,1,2.78,57.58C12.85,21.25,45.29-1.69,84,.1c34.28,1.58,65,29.64,71.07,65.14.87,5.06.77,10.28,1.1,15.43.14,2.32-.52,3.78-3.31,3.76C142.06,84.34,131.24,84.39,119.53,84.39Z"/></g></g></svg>
