<svg xmlns="http://www.w3.org/2000/svg" viewBox="0 0 495.48 423"><defs><style>.cls-1{fill:#3c6;}</style></defs><title>symbol</title><g id="Livello_2" data-name="Livello 2"><g id="Livello_2-2" data-name="Livello 2"><path class="cls-1" d="M34,97.67c-57.7,103.08-49,268.06,81.08,309.43,77.67,24.65,182.33,23.44,254.06-23.6a26.42,26.42,0,0,0,8.13-35.61,175.83,175.83,0,0,1-9.48-18.29,26.39,26.39,0,0,0-40.74-10c-48.11,39.53-116.91,53.63-172.93,20.73C84,299.19,51,206.17,100.84,136.7c44.82-62.74,134-94.12,203.53-53.35a158.77,158.77,0,0,1,36.5,29.51,26.53,26.53,0,0,0,42.82-5.15l.23-.39a162.93,162.93,0,0,1,16.85-24.65,26.51,26.51,0,0,0-3.53-37.32l-.23-.19A164.46,164.46,0,0,0,343.4,16.57C241.57-16.31,91.88-5.6,34,97.67Z"/><path class="cls-1" d="M270,142.13c46.72,14.25,50.29,74.19,28.95,110.48-21.11,35.85-75,39.3-110.48,28.95-46.12-13.45-47.55-75.63-28.93-110.48C179.27,134.1,234.83,131.41,270,142.13Z"/><path class="cls-1" d="M427.44,274.68c-9.48-.63-16.11-2-22.41-7.22a346,346,0,0,1-36.69-35.85c-10.93-12.33-8.49-23.94.92-35.05a352.52,352.52,0,0,1,41.12-41c11.39-9.64,23.15-9.5,34.09-.74,18.78,15.06,33.79,33.81,47.87,53.24,3.49,4.84,4.61,10.27.53,15.69-14.83,20-34.17,35-54.27,49.1C435.37,275.28,429.86,274.37,427.44,274.68Z"/></g></g></svg>