<svg xmlns="http://www.w3.org/2000/svg" viewBox="0 0 19.21 15.61"><defs><style>.cls-1{fill:#56e38e;}</style></defs><title>twitter</title><g id="Livello_2" data-name="Livello 2"><g id="Livello_2-2" data-name="Livello 2"><path id="icons8-twitter-60" class="cls-1" d="M19.21,1.85a7.73,7.73,0,0,1-2.27.62A4,4,0,0,0,18.68.29a8,8,0,0,1-2.5,1,4,4,0,0,0-6.72,3.6A11.24,11.24,0,0,1,1.34.72,3.94,3.94,0,0,0,2.56,6,4,4,0,0,1,.77,5.49v0A3.94,3.94,0,0,0,3.93,9.4a4.07,4.07,0,0,1-1,.14,3.71,3.71,0,0,1-.74-.07,4,4,0,0,0,3.68,2.74A7.94,7.94,0,0,1,0,13.84a11.15,11.15,0,0,0,6,1.77A11.13,11.13,0,0,0,17.25,4.55V4.4c0-.17,0-.34,0-.51A8.13,8.13,0,0,0,19.21,1.85Z"/></g></g></svg>