<svg xmlns="http://www.w3.org/2000/svg" viewBox="0 0 1000.15 188.77"><defs><style>.cls-1{fill:#f6f8f1;}.cls-2{fill:#3c6;}</style></defs><title>Risorsa 1</title><g id="Livello_2" data-name="Livello 2"><g id="Livello_1-2" data-name="Livello 1"><path class="cls-1" d="M335.77,44.3a61.65,61.65,0,0,0-25.37-5,67.6,67.6,0,0,0-18.92,2.44,61.9,61.9,0,0,0-14.05,5.75A17.12,17.12,0,0,0,271.58,53a14.27,14.27,0,0,0-1.76,7.42v99.11q0,6.24,3.22,8.78t9.85,2.54a39.87,39.87,0,0,0,6.44-.49,25.89,25.89,0,0,0,4.49-1.07V133c1.63.7,3.41,1.37,5.36,2a46.1,46.1,0,0,0,14.15,2,50,50,0,0,0,23.9-5.56A39.63,39.63,0,0,0,353.62,115q5.94-10.94,5.95-27.32,0-17-6.34-27.7A37.9,37.9,0,0,0,335.77,44.3Zm-7.42,66.14q-6.83,7.32-18.53,7.32a28.32,28.32,0,0,1-12.2-2.44c-1.35-.64-2.6-1.32-3.8-2V62.74a31.85,31.85,0,0,1,7-3,32.27,32.27,0,0,1,9.56-1.27,27.17,27.17,0,0,1,12.68,2.92A20.49,20.49,0,0,1,332,70.64q3.23,6.35,3.22,17.07Q335.18,103.13,328.35,110.44Z"/><path class="cls-1" d="M713.1,44.3a61.6,61.6,0,0,0-25.36-5,67.62,67.62,0,0,0-18.93,2.44,62,62,0,0,0-14,5.75A17.06,17.06,0,0,0,648.91,53a14.27,14.27,0,0,0-1.75,7.42v99.11q0,6.24,3.22,8.78t9.85,2.54a39.87,39.87,0,0,0,6.44-.49,25.74,25.74,0,0,0,4.48-1.07V133c1.64.7,3.42,1.37,5.37,2a46,46,0,0,0,14.14,2,50.07,50.07,0,0,0,23.91-5.56A39.67,39.67,0,0,0,731,115q6-10.94,5.95-27.32,0-17-6.34-27.7A37.8,37.8,0,0,0,713.1,44.3Zm-7.41,66.14q-6.84,7.32-18.54,7.32A28.24,28.24,0,0,1,675,115.32c-1.35-.64-2.6-1.32-3.81-2V62.74a31.7,31.7,0,0,1,16.59-4.29,27.19,27.19,0,0,1,12.68,2.92,20.59,20.59,0,0,1,8.88,9.27q3.21,6.35,3.22,17.07Q712.52,103.13,705.69,110.44Z"/><path class="cls-1" d="M439.32,44.5q-9.66-5.18-22.53-5.17a51.49,51.49,0,0,0-17.56,3,41.24,41.24,0,0,0-24.78,23.9,54.47,54.47,0,0,0-3.71,20.88q0,16.58,6.54,27.7a41.22,41.22,0,0,0,18.14,16.68q11.61,5.56,26.63,5.56a70.17,70.17,0,0,0,17.37-1.95,31.71,31.71,0,0,0,12.1-5.56q5.5-4.43,4.25-11.07a8.24,8.24,0,0,0-.66-2,14.23,14.23,0,0,0-5.16-5.76,43.67,43.67,0,0,1-11.12,5.37,45.94,45.94,0,0,1-15.21,2.44q-12.11,0-20-5.85T394,94.35a57.28,57.28,0,0,1-.59-10.15c0-7.16,2.41-15.18,6.83-19.8a22,22,0,0,1,16.59-6.93q9.75,0,14.83,5.46c3.38,3.65,5.06,6.61,3.47,10.11-.94,2.06-5.43,3.91-8.44,4.95h0a31.86,31.86,0,0,0-12.1,5.56Q409,88,410.29,94.62a8,8,0,0,0,.66,2,14.08,14.08,0,0,0,5.15,5.76A44.19,44.19,0,0,1,427.22,97c4.69-1.63,7.46-2,15.22-4.24l6.93-1.55c3.81-.83,6-1.46,7.9-3.21s2.83-4.46,2.83-8.1a39.8,39.8,0,0,0-5.56-21.07A39,39,0,0,0,439.32,44.5Z"/><path class="cls-1" d="M541.67,44.5q-9.66-5.18-22.53-5.17a51.49,51.49,0,0,0-17.56,3,41.24,41.24,0,0,0-24.78,23.9,54.47,54.47,0,0,0-3.71,20.88q0,16.58,6.54,27.7a41.22,41.22,0,0,0,18.14,16.68q11.61,5.56,26.63,5.56a70.17,70.17,0,0,0,17.37-1.95,31.71,31.71,0,0,0,12.1-5.56q5.5-4.43,4.25-11.07a8.24,8.24,0,0,0-.66-2,14.23,14.23,0,0,0-5.16-5.76,43.67,43.67,0,0,1-11.12,5.37A45.94,45.94,0,0,1,526,118.54q-12.11,0-20-5.85t-9.66-18.34a56.89,56.89,0,0,1-.58-10.15c0-7.16,2.4-15.18,6.82-19.8a22,22,0,0,1,16.59-6.93q9.75,0,14.83,5.46c3.38,3.65,5.06,6.61,3.47,10.11C536.5,75.1,532,77,529,78h0a31.86,31.86,0,0,0-12.1,5.56q-5.5,4.44-4.25,11.08a8,8,0,0,0,.66,2,14.08,14.08,0,0,0,5.15,5.76A44.19,44.19,0,0,1,529.57,97c4.69-1.63,7.46-2,15.22-4.24l6.93-1.55c3.81-.83,6-1.46,7.9-3.21s2.83-4.46,2.83-8.1a39.8,39.8,0,0,0-5.56-21.07A39,39,0,0,0,541.67,44.5Z"/><path class="cls-1" d="M618.56,41.78a76.31,76.31,0,0,0-19.31,2.34A56.7,56.7,0,0,0,584.42,50a25.16,25.16,0,0,0-6.64,6.34,14.32,14.32,0,0,0-2.34,8.29v62.24c0,4.17,1.08,7.06,3.22,8.68s5.43,2.44,9.86,2.44a38.64,38.64,0,0,0,6.43-.49,25,25,0,0,0,4.49-1.07V66.55a37.72,37.72,0,0,1,10.44-4,56.53,56.53,0,0,1,13.17-1.47q3.32,0,6.24.29c2,.2,3.58.43,4.88.69a17.71,17.71,0,0,0,2-4,15.12,15.12,0,0,0,.78-5Q636.9,41.78,618.56,41.78Z"/><path class="cls-1" d="M819.84,45.38q-10.65-6-24.88-6.05t-25,6a42.3,42.3,0,0,0-16.78,16.87q-6.06,10.93-6.05,25.95,0,15.23,6,26.15a41.68,41.68,0,0,0,16.68,16.87q10.73,6,25.17,5.95T820,131.12a41.06,41.06,0,0,0,16.49-17q5.85-11,5.85-26.05,0-14.82-6-25.75A42.58,42.58,0,0,0,819.84,45.38Zm-8.1,64.77q-6,7.8-16.78,7.8-10.94,0-17-7.7t-6-22.15q0-14,6.14-21.85t16.68-7.8q10.93,0,17,7.9t6,21.75Q817.79,102.35,811.74,110.15Z"/><path class="cls-1" d="M900.34,78.93l-10-2.34q-6-1.36-8.59-3.7a7.44,7.44,0,0,1-2.53-5.66q0-4.49,4.39-6.93c2.93-1.62,6.92-2.44,12-2.44a48.55,48.55,0,0,1,10.14,1.08,50.65,50.65,0,0,1,9.07,2.73,54.12,54.12,0,0,1,6.35,3,10.27,10.27,0,0,0,3.8-4,12,12,0,0,0,1.46-5.95,10.63,10.63,0,0,0-4.19-8.39q-4.2-3.51-11.61-5.36a69.14,69.14,0,0,0-16.78-1.86q-18,0-28.09,7.9t-10.15,20.2q0,11.11,6.93,17.75t21.17,9.76l11.12,2.92q6,1.17,9,3.81a8.86,8.86,0,0,1,2.93,6.92q0,10.15-16.59,10.15a46,46,0,0,1-16.38-2.73,67,67,0,0,1-12.69-6.25A11.71,11.71,0,0,0,857,114a12.44,12.44,0,0,0-1.56,6.15q0,7.8,9.95,12.49T891,137.27q19.32,0,29.46-7.71t10.15-21.36q0-11.31-7.22-18.44T900.34,78.93Z"/><path class="cls-1" d="M996.24,115a29.84,29.84,0,0,1-6.14,2,32,32,0,0,1-6.73.78c-4.69,0-8.29-.91-10.83-2.73s-3.81-4.88-3.81-9.17V62.93h23a8,8,0,0,0,6-2.43q2.34-2.45,2.34-7.32a16.14,16.14,0,0,0-.88-5.27,24.46,24.46,0,0,0-1.66-3.9H968.73V27.23q0-6.24-3.12-8.68t-10-2.44a33.36,33.36,0,0,0-6.34.59,30.06,30.06,0,0,0-4.58,1.17v89.74q0,15.61,8.87,22.54t24.29,6.92q11.33,0,16.69-3.7T1000,124a10.92,10.92,0,0,0-1.17-5.27A20.5,20.5,0,0,0,996.24,115Z"/><path class="cls-2" d="M15.17,43.58c-25.75,46-21.85,119.62,36.18,138.08,34.66,11,81.36,10.46,113.37-10.53a11.79,11.79,0,0,0,3.63-15.89,77.71,77.71,0,0,1-4.23-8.16,11.77,11.77,0,0,0-18.18-4.46c-21.47,17.64-52.17,23.93-77.17,9.25C37.5,133.51,22.75,92,45,61,65,33,104.81,19,135.82,37.19a70.94,70.94,0,0,1,16.29,13.17,11.84,11.84,0,0,0,19.11-2.3l.1-.17a72.26,72.26,0,0,1,7.52-11,11.83,11.83,0,0,0-1.68-16.74A73.44,73.44,0,0,0,153.24,7.39C107.8-7.28,41-2.5,15.17,43.58Z"/><path class="cls-2" d="M120.48,63.42c20.85,6.36,22.44,33.11,12.92,49.3-9.42,16-33.46,17.54-49.3,12.92-20.58-6-21.22-33.75-12.91-49.3C80,59.84,104.79,58.64,120.48,63.42Z"/><path class="cls-2" d="M190.74,122.57c-4.23-.28-7.19-.9-10-3.22a154.2,154.2,0,0,1-16.37-16c-4.88-5.5-3.79-10.68.41-15.64a157.09,157.09,0,0,1,18.35-18.31c5.08-4.3,10.33-4.24,15.21-.33,8.38,6.72,15.08,15.09,21.36,23.76,1.56,2.16,2.06,4.58.24,7-6.62,8.91-15.25,15.63-24.22,21.91C194.28,122.84,191.82,122.43,190.74,122.57Z"/></g></g></svg>