<svg xmlns="http://www.w3.org/2000/svg" viewBox="0 0 250.01 256.07"><defs><style>.cls-1{fill:#3c6;}</style></defs><title>Risorsa 1</title><g id="Livello_2" data-name="Livello 2"><g id="Livello_2-2" data-name="Livello 2"><polygon class="cls-1" points="11.67 235.86 0 256.07 23.34 256.07 11.67 235.86"/><polygon class="cls-1" points="68.34 235.86 56.67 256.07 80 256.07 68.34 235.86"/><polygon class="cls-1" points="125 235.86 113.34 256.07 136.67 256.07 125 235.86"/><polygon class="cls-1" points="181.67 235.86 170 256.07 193.34 256.07 181.67 235.86"/><polygon class="cls-1" points="238.34 235.86 226.67 256.07 250.01 256.07 238.34 235.86"/><polygon class="cls-1" points="11.67 176.89 0 197.1 23.34 197.1 11.67 176.89"/><polygon class="cls-1" points="68.34 176.89 56.67 197.1 80 197.1 68.34 176.89"/><polygon class="cls-1" points="125 176.89 113.34 197.1 136.67 197.1 125 176.89"/><polygon class="cls-1" points="181.67 176.89 170 197.1 193.34 197.1 181.67 176.89"/><polygon class="cls-1" points="238.34 176.89 226.67 197.1 250.01 197.1 238.34 176.89"/><polygon class="cls-1" points="11.67 117.93 0 138.14 23.34 138.14 11.67 117.93"/><polygon class="cls-1" points="68.34 117.93 56.67 138.14 80 138.14 68.34 117.93"/><polygon class="cls-1" points="125 117.93 113.34 138.14 136.67 138.14 125 117.93"/><polygon class="cls-1" points="181.67 117.93 170 138.14 193.34 138.14 181.67 117.93"/><polygon class="cls-1" points="238.34 117.93 226.67 138.14 250.01 138.14 238.34 117.93"/><polygon class="cls-1" points="11.67 58.97 0 79.17 23.34 79.17 11.67 58.97"/><polygon class="cls-1" points="68.34 58.97 56.67 79.17 80 79.17 68.34 58.97"/><polygon class="cls-1" points="125 58.97 113.34 79.17 136.67 79.17 125 58.97"/><polygon class="cls-1" points="181.67 58.97 170 79.17 193.34 79.17 181.67 58.97"/><polygon class="cls-1" points="238.34 58.97 226.67 79.17 250.01 79.17 238.34 58.97"/><polygon class="cls-1" points="11.67 0 0 20.21 23.34 20.21 11.67 0"/><polygon class="cls-1" points="68.34 0 56.67 20.21 80 20.21 68.34 0"/><polygon class="cls-1" points="125 0 113.34 20.21 136.67 20.21 125 0"/><polygon class="cls-1" points="181.67 0 170 20.21 193.34 20.21 181.67 0"/><polygon class="cls-1" points="238.34 0 226.67 20.21 250.01 20.21 238.34 0"/></g></g></svg>